<svg xmlns="http://www.w3.org/2000/svg" xmlns:xlink="http://www.w3.org/1999/xlink" width="32" height="31" viewBox="0 0 32 31">
    <defs>
        <path id="b" d="M29.614 5.49c1.075 1.139.964 2.978-.124 4.117l-13.66 14.31c-1.117 1.23-1.804 1.946-2.06 2.15-.805.642-1.996.38-3.573-.786l-6.591-6.603c-1.098-1.15-1.186-3.026-.08-4.203 1.163-1.122 2.886-1.1 3.984.051l5.215 4.668L25.713 5.588c1.088-1.14 2.83-1.238 3.901-.098z"/>
        <filter id="a" width="157.9%" height="173.6%" x="-29%" y="-32.2%" filterUnits="objectBoundingBox">
            <feOffset dy="1" in="SourceAlpha" result="shadowOffsetOuter1"/>
            <feGaussianBlur in="shadowOffsetOuter1" result="shadowBlurOuter1" stdDeviation="2.5"/>
            <feColorMatrix in="shadowBlurOuter1" result="shadowMatrixOuter1" values="0 0 0 0 0 0 0 0 0 0 0 0 0 0 0 0 0 0 0.2 0"/>
            <feMorphology in="SourceAlpha" radius="1" result="shadowSpreadOuter2"/>
            <feOffset dy="3" in="shadowSpreadOuter2" result="shadowOffsetOuter2"/>
            <feGaussianBlur in="shadowOffsetOuter2" result="shadowBlurOuter2" stdDeviation=".5"/>
            <feColorMatrix in="shadowBlurOuter2" result="shadowMatrixOuter2" values="0 0 0 0 0 0 0 0 0 0 0 0 0 0 0 0 0 0 0.12 0"/>
            <feOffset dy="2" in="SourceAlpha" result="shadowOffsetOuter3"/>
            <feGaussianBlur in="shadowOffsetOuter3" result="shadowBlurOuter3" stdDeviation="1"/>
            <feColorMatrix in="shadowBlurOuter3" result="shadowMatrixOuter3" values="0 0 0 0 0 0 0 0 0 0 0 0 0 0 0 0 0 0 0.14 0"/>
            <feMerge>
                <feMergeNode in="shadowMatrixOuter1"/>
                <feMergeNode in="shadowMatrixOuter2"/>
                <feMergeNode in="shadowMatrixOuter3"/>
            </feMerge>
        </filter>
    </defs>
    <g fill="none" fill-rule="evenodd">
        <path d="M0 0h32v31H0z"/>
        <g>
            <use fill="#000" filter="url(#a)" xlink:href="#b"/>
            <use fill="#12171B" xlink:href="#b"/>
            <use fill="#FFF" fill-opacity=".07" xlink:href="#b"/>
        </g>
        <path fill="#EEE" d="M29.614 5.49c1.075 1.139.964 2.978-.124 4.117l-13.66 14.31c-1.117 1.23-1.804 1.946-2.06 2.15-.805.642-1.996.38-3.573-.786l-6.591-6.603c-1.098-1.15-1.186-3.026-.08-4.203 1.163-1.122 2.886-1.1 3.984.051l5.215 4.668L25.713 5.588c1.088-1.14 2.83-1.238 3.901-.098z"/>
    </g>
</svg>
