<?xml version="1.0" encoding="UTF-8"?>
<svg width="192px" height="192px" viewBox="0 0 192 192" version="1.1" xmlns="http://www.w3.org/2000/svg" xmlns:xlink="http://www.w3.org/1999/xlink">
    <title>Group</title>
    <defs>
        <linearGradient x1="110.425326%" y1="51.4171013%" x2="0.767428839%" y2="48.6147172%" id="linearGradient-1">
            <stop stop-color="#FFFFFF" offset="0%"></stop>
            <stop stop-color="#625F60" offset="93.3333333%"></stop>
            <stop stop-color="#231F1F" offset="100%"></stop>
        </linearGradient>
        <linearGradient x1="41.9682928%" y1="-0.742313064%" x2="62.7552471%" y2="92.8483%" id="linearGradient-2">
            <stop stop-color="#FFFFFF" offset="0%"></stop>
            <stop stop-color="#231F1F" offset="100%"></stop>
        </linearGradient>
        <linearGradient x1="7.2822947%" y1="75.5237219%" x2="95.4455203%" y2="32.0335128%" id="linearGradient-3">
            <stop stop-color="#FFFFFF" offset="0%"></stop>
            <stop stop-color="#231F1F" offset="100%"></stop>
        </linearGradient>
    </defs>
    <g id="0---Login" stroke="none" stroke-width="1" fill="none" fill-rule="evenodd">
        <g id="Logo">
            <rect id="Boundary" x="0" y="0" width="192" height="192"></rect>
            <rect id="Rectangle" stroke="#979797" fill="#FFFFFF" x="61.5" y="53.5" width="75" height="84"></rect>
            <path d="M141.862561,31.1868575 C122.88667,18.0650534 100.130024,14.2909257 79.1652835,18.8511018 L79.1181281,62.7602569 L126.947582,95.9386193 L169.58162,125.515401 L169.614906,125.540051 C183.672766,92.2904784 172.974036,52.719653 141.862561,31.1868575" id="Fill-38" fill="url(#linearGradient-1)" style="mix-blend-mode: overlay;"></path>
            <path d="M56.3808992,27.6455315 C56.3254222,27.67292 56.2699453,27.7085249 56.2144683,27.7441299 C55.3545755,28.2398608 54.5002305,28.7602412 53.654207,29.2860994 C53.4766807,29.398392 53.2991545,29.5134235 53.1299498,29.6229773 C52.4004278,30.0913197 51.6792275,30.5651398 50.9608009,31.0608706 C50.7083808,31.2361567 50.4531868,31.4169204 50.2007667,31.5949453 C49.5711033,32.0468546 48.938666,32.5015028 48.3117765,32.9671064 C48.0232963,33.186214 47.73759,33.4053215 47.4574314,33.6244291 C46.8610541,34.0872938 46.2674508,34.5474197 45.6877166,35.0294563 C45.4186534,35.245825 45.1412686,35.475888 44.8749793,35.7032121 C44.2730543,36.2098983 43.6739032,36.7275399 43.0830737,37.253398 C42.9804413,37.3410411 42.8889044,37.4341618 42.786272,37.5272825 C26.894899,51.8623946 16.9145953,72.4858938 16.9145953,95.4127611 C16.9145953,117.367339 26.1043524,137.210267 40.8529002,151.427609 L79.1292235,126.783486 L79.1874743,62.7821677 L79.2318558,18.8702737 C71.2542701,20.6039623 63.5291045,23.5427424 56.3808992,27.6455315" id="Fill-41" fill="url(#linearGradient-2)" style="mix-blend-mode: overlay;"></path>
            <path d="M127.005833,95.9906573 L79.1292235,126.810875 L40.8445787,151.454997 L40.711434,151.54264 C66.7523154,176.778354 107.938405,181.667191 139.737794,161.145029 C141.329982,160.109746 142.858372,159.030641 144.345155,157.91867 C144.561515,157.757079 144.775101,157.603703 144.988687,157.442111 C146.397802,156.360268 147.75144,155.240081 149.071791,154.089766 C149.310342,153.878875 149.551667,153.662506 149.795765,153.446137 C151.088378,152.287606 152.342157,151.09347 153.546007,149.855512 C153.729081,149.666532 153.909381,149.474813 154.086908,149.285833 C155.335139,147.984881 156.541763,146.651064 157.684588,145.281642 C158.827413,143.904003 159.903666,142.485282 160.943859,141.050127 C161.093647,140.839236 161.248982,140.633823 161.401544,140.417454 C162.37239,139.042554 163.293308,137.637527 164.172617,136.213328 C164.339048,135.942182 164.497158,135.665559 164.663589,135.391674 C165.523481,133.95652 166.336219,132.504932 167.096253,131.023217 C167.218302,130.790416 167.329256,130.554875 167.442984,130.324812 C168.222435,128.774626 168.960278,127.194313 169.628776,125.603044 C169.628776,125.594828 169.637097,125.583872 169.642645,125.578395 L127.005833,95.9906573 Z" id="Fill-44" fill="url(#linearGradient-3)" style="mix-blend-mode: overlay;"></path>
            <path d="M40.6856372,151.542367 C66.7265186,176.77808 107.909834,181.669656 139.711997,161.144755 C171.455909,140.660937 183.461122,101.54476 170.609886,67.903533 L40.6856372,151.542367 Z" id="Fill-26" fill="#93C01F"></path>
            <path d="M169.658179,125.584968 C183.716038,92.3299178 173.01176,52.76457 141.900285,31.2290357 C110.847061,9.74280052 69.6138166,13.2622157 42.7491024,37.5420723 L169.658179,125.584968 Z" id="Fill-29" fill="#35A8E0"></path>
            <path d="M79.2007887,18.843433 C43.5651684,26.5669746 16.8863021,57.9240053 16.8863021,95.4379585 C16.8863021,132.888918 43.5929069,164.218561 79.0565486,171.920191 L79.2007887,18.843433 Z" id="Fill-32" fill="#F3E10F"></path>
            <path d="M126.976431,95.9912051 L40.684805,151.543188 C66.7284603,176.778901 107.909002,181.667739 139.711165,161.145577 C153.602594,152.184078 163.707721,139.653864 169.616016,125.578942 L126.976431,95.9912051 Z" id="Fill-35" fill="#93C01F"></path>
        </g>
    </g>
</svg>