<?xml version="1.0" encoding="UTF-8"?>
<svg width="512px" height="512px" viewBox="0 0 512 512" version="1.1" xmlns="http://www.w3.org/2000/svg" xmlns:xlink="http://www.w3.org/1999/xlink">
    <title>Group</title>
    <defs>
        <linearGradient x1="110.425326%" y1="51.4171013%" x2="0.767428839%" y2="48.6147172%" id="linearGradient-1">
            <stop stop-color="#FFFFFF" offset="0%"></stop>
            <stop stop-color="#625F60" offset="93.3333333%"></stop>
            <stop stop-color="#231F1F" offset="100%"></stop>
        </linearGradient>
        <linearGradient x1="41.9682928%" y1="-0.742313064%" x2="62.7552471%" y2="92.8483%" id="linearGradient-2">
            <stop stop-color="#FFFFFF" offset="0%"></stop>
            <stop stop-color="#231F1F" offset="100%"></stop>
        </linearGradient>
        <linearGradient x1="7.2822947%" y1="75.5237219%" x2="95.4455203%" y2="32.0335128%" id="linearGradient-3">
            <stop stop-color="#FFFFFF" offset="0%"></stop>
            <stop stop-color="#231F1F" offset="100%"></stop>
        </linearGradient>
    </defs>
    <g id="0---Login" stroke="none" stroke-width="1" fill="none" fill-rule="evenodd">
        <g id="Logo">
            <rect id="Boundary" x="0" y="0" width="512" height="512"></rect>
            <rect id="Rectangle" stroke="#979797" fill="#FFFFFF" x="163.166667" y="141.833333" width="201.666667" height="225.666667"></rect>
            <path d="M378.300163,83.1649532 C327.697786,48.1734758 267.013397,38.1091352 211.107423,50.2696048 L210.981675,167.360685 L338.526887,255.836318 L452.217654,334.707736 L452.306417,334.773469 C489.794043,246.107942 461.264096,140.585741 378.300163,83.1649532" id="Fill-38" fill="url(#linearGradient-1)" style="mix-blend-mode: overlay;"></path>
            <path d="M150.349064,73.7214174 C150.201126,73.7944532 150.053187,73.8893998 149.905249,73.9843465 C147.612201,75.3062954 145.333948,76.6939766 143.077885,78.096265 C142.604482,78.395712 142.131079,78.7024626 141.679866,78.994606 C139.734474,80.2435191 137.811273,81.5070394 135.895469,82.8289883 C135.222349,83.2964178 134.541831,83.7784544 133.868711,84.2531875 C132.189609,85.458279 130.503109,86.6706742 128.831404,87.9122837 C128.062123,88.4965705 127.30024,89.0808574 126.55315,89.6651442 C124.962811,90.8994501 123.379869,92.1264525 121.833911,93.4118835 C121.116409,93.9888667 120.376716,94.6023679 119.666611,95.2085655 C118.061478,96.5597288 116.463742,97.9401064 114.888197,99.3423948 C114.61451,99.5761095 114.370412,99.8244314 114.096725,100.072753 C71.7197307,138.299719 45.1055875,193.295717 45.1055875,254.43403 C45.1055875,312.97957 69.6116065,365.894046 108.941067,403.806957 L211.011263,338.089296 L211.166598,167.419114 L211.284949,50.3207299 C190.011387,54.9438995 169.410945,62.7806465 150.349064,73.7214174" id="Fill-41" fill="url(#linearGradient-2)" style="mix-blend-mode: overlay;"></path>
            <path d="M338.682222,255.975086 L211.011263,338.162332 L108.918876,403.879993 L108.563824,404.113708 C178.006174,471.408943 287.835746,484.445843 372.634117,429.720078 C376.879953,426.959323 380.95566,424.08171 384.920413,421.116455 C385.497373,420.685543 386.066936,420.276542 386.6365,419.845631 C390.394139,416.960714 394.003839,413.973548 397.524776,410.906042 C398.160912,410.343666 398.804445,409.766683 399.455374,409.1897 C402.902342,406.100283 406.245753,402.91592 409.456019,399.614699 C409.944217,399.110752 410.425017,398.599501 410.89842,398.095553 C414.227037,394.62635 417.444701,391.069504 420.492234,387.417712 C423.539768,383.744008 426.409776,379.960751 429.183624,376.133672 C429.583058,375.571296 429.997286,375.023527 430.404117,374.446544 C432.993041,370.780144 435.448821,367.033405 437.793647,363.235541 C438.237462,362.512486 438.659087,361.774824 439.102903,361.044465 C441.39595,357.217386 443.56325,353.346486 445.590008,349.395246 C445.915472,348.774442 446.21135,348.146333 446.514624,347.532832 C448.59316,343.399003 450.560743,339.184834 452.343402,334.941451 C452.343402,334.91954 452.365593,334.890326 452.380387,334.875719 L338.682222,255.975086 Z" id="Fill-44" fill="url(#linearGradient-3)" style="mix-blend-mode: overlay;"></path>
            <path d="M108.495033,404.112977 C177.937383,471.408213 287.759558,484.452416 372.565325,429.719348 C457.215758,375.095833 489.229658,270.786027 454.959695,181.076088 L108.495033,404.112977 Z" id="Fill-26" fill="#93C01F"></path>
            <path d="M452.421809,334.893247 C489.909435,246.213114 461.364694,140.70552 378.400761,83.2774285 C295.592164,25.9808014 185.636844,35.3659086 113.997607,100.112193 L452.421809,334.893247 Z" id="Fill-29" fill="#35A8E0"></path>
            <path d="M211.202103,50.2491548 C116.173782,70.8452655 45.0301388,154.464014 45.0301388,254.501223 C45.0301388,354.370449 116.247752,437.916162 210.817463,458.453844 L211.202103,50.2491548 Z" id="Fill-32" fill="#F3E10F"></path>
            <path d="M338.603815,255.976547 L108.492813,404.115169 C177.942561,471.410404 287.757339,484.447304 372.563106,429.721539 C409.606917,405.824207 436.553922,372.410305 452.309376,334.877179 L338.603815,255.976547 Z" id="Fill-35" fill="#93C01F"></path>
        </g>
    </g>
</svg>