<svg xmlns="http://www.w3.org/2000/svg" width="272" height="272" viewBox="0 0 272 272">
    <g fill="#DADBDB" fill-opacity=".44" fill-rule="evenodd" opacity=".44">
        <path d="M180 122c12.945 0 24.609-7.792 29.57-19.76 4.943-11.953 2.207-25.713-6.945-34.865-9.152-9.152-22.913-11.888-34.865-6.944C155.792 65.391 148 77.055 148 90c0 17.68 14.32 32 32 32zm0-46.929c6.033 0 11.489 3.632 13.793 9.216 2.32 5.584 1.04 12-3.232 16.273-4.273 4.272-10.689 5.552-16.273 3.232-5.584-2.304-9.216-7.76-9.216-13.793 0-8.24 6.688-14.928 14.928-14.928z"/>
        <path d="M268.63 37.542l-.255-4.256C267.18 17.38 254.542 4.738 238.622 3.543l-4.255-.255h.016c-65.545-4.384-131.317-4.384-196.845 0l-4.255.255C17.379 4.738 4.725 17.378 3.53 33.286l-.255 4.256c-4.367 65.559-4.367 131.33 0 196.888l.255 4.256c1.195 15.987 13.96 28.675 29.96 29.744l8.08.51c31.57 2.04 63.41 3.06 95.236 3.06 33.992 0 68-1.148 101.992-3.49v.015c15.92-1.18 28.574-13.835 29.753-29.76l.255-4.255c4.319-65.575 4.255-131.39-.175-196.97l-.001.002zM20.153 38.69l.255-4.256c.542-7.524 6.534-13.517 14.072-14.059l4.255-.255c32.159-2.088 64.67-3.156 97.178-3.156 32.506 0 65.022 1.068 97.275 3.236l4.256.255c7.522.542 13.514 6.535 14.055 14.074l.255 4.257v-.016c3.267 49.048 4.064 98.219 2.39 147.329-8.493-7.731-17.13-15.478-25.88-23.209l-3.108-2.805c-12.143-10.712-30.358-10.712-42.502 0l-5.944 5.356c-7.346 6.455-14.279 12.751-21.243 18.952-12.19-11.429-24.908-22.953-37.912-34.35l-2.885-2.71c-12.143-10.712-30.358-10.712-42.502 0l-5.944 5.356c-16.159 14.202-32.303 28.994-47.985 44.119-2.215-52.697-1.578-105.491 1.912-158.122l.002.004zM42.416 251.98l-8.032-.51c-7.538-.526-13.546-6.52-14.104-14.059l-.255-4.256c-.303-4.638-.558-9.26-.813-13.899 18.964-18.41 38.598-36.518 58.23-53.814l6.04-5.308h-.016c5.705-4.974 14.2-4.974 19.888 0l3.108 2.725c14.916 13.087 29.45 26.317 43.17 39.355 17.42 16.53 34.678 33.792 51.458 51.391h.016c-52.893 2.311-105.864 1.77-158.692-1.626l.002.001zm208.83-14.489c-.51 7.54-6.486 13.533-14.024 14.075l-13.896.845c-18.024-19.256-36.67-38.256-55.536-56.284 6.454-5.913 13.051-11.811 20.015-17.932l6.04-5.308c5.69-4.973 14.184-4.973 19.889 0l3.107 2.726c12.75 11.014 24.654 21.98 36.16 32.772-.43 8.336-.909 16.657-1.45 24.993l-.305 4.113z"/>
    </g>
</svg>
